<mxfile host="Electron" modified="2023-04-14T10:25:17.010Z" agent="Mozilla/5.0 (Windows NT 10.0; Win64; x64) AppleWebKit/537.36 (KHTML, like Gecko) draw.io/21.1.2 Chrome/106.0.5249.199 Electron/21.4.3 Safari/537.36" etag="4HZo8a6I81lbFnPK5E6s" version="21.1.2" type="device">
  <diagram id="C5RBs43oDa-KdzZeNtuy" name="Page-1">
    <mxGraphModel dx="1005" dy="674" grid="1" gridSize="10" guides="1" tooltips="1" connect="1" arrows="1" fold="1" page="1" pageScale="1" pageWidth="827" pageHeight="1169" math="0" shadow="0">
      <root>
        <mxCell id="WIyWlLk6GJQsqaUBKTNV-0" />
        <mxCell id="WIyWlLk6GJQsqaUBKTNV-1" parent="WIyWlLk6GJQsqaUBKTNV-0" />
        <mxCell id="6bP5UxfNHsmQ2CxWuya5-35" value="MainWindow" style="swimlane;fontStyle=1;childLayout=stackLayout;horizontal=1;startSize=30;horizontalStack=0;resizeParent=1;resizeParentMax=0;resizeLast=0;collapsible=1;marginBottom=0;whiteSpace=wrap;html=1;rounded=1;" parent="WIyWlLk6GJQsqaUBKTNV-1" vertex="1">
          <mxGeometry x="80" y="40" width="140" height="250" as="geometry">
            <mxRectangle x="80" y="40" width="60" height="30" as="alternateBounds" />
          </mxGeometry>
        </mxCell>
        <mxCell id="6bP5UxfNHsmQ2CxWuya5-45" value="Bianry Tree" style="text;strokeColor=none;fillColor=none;align=left;verticalAlign=middle;spacingLeft=4;spacingRight=4;overflow=hidden;points=[[0,0.5],[1,0.5]];portConstraint=eastwest;rotatable=0;whiteSpace=wrap;html=1;rounded=1;" parent="6bP5UxfNHsmQ2CxWuya5-35" vertex="1">
          <mxGeometry y="30" width="140" height="30" as="geometry" />
        </mxCell>
        <mxCell id="6bP5UxfNHsmQ2CxWuya5-106" value="" style="line;strokeWidth=1;fillColor=none;align=left;verticalAlign=middle;spacingTop=-1;spacingLeft=3;spacingRight=3;rotatable=0;labelPosition=right;points=[];portConstraint=eastwest;strokeColor=inherit;rounded=1;" parent="6bP5UxfNHsmQ2CxWuya5-35" vertex="1">
          <mxGeometry y="60" width="140" height="8" as="geometry" />
        </mxCell>
        <mxCell id="6bP5UxfNHsmQ2CxWuya5-36" value="Stack" style="text;strokeColor=none;fillColor=none;align=left;verticalAlign=middle;spacingLeft=4;spacingRight=4;overflow=hidden;points=[[0,0.5],[1,0.5]];portConstraint=eastwest;rotatable=0;whiteSpace=wrap;html=1;rounded=1;" parent="6bP5UxfNHsmQ2CxWuya5-35" vertex="1">
          <mxGeometry y="68" width="140" height="30" as="geometry" />
        </mxCell>
        <mxCell id="6bP5UxfNHsmQ2CxWuya5-107" value="" style="line;strokeWidth=1;fillColor=none;align=left;verticalAlign=middle;spacingTop=-1;spacingLeft=3;spacingRight=3;rotatable=0;labelPosition=right;points=[];portConstraint=eastwest;strokeColor=inherit;rounded=1;" parent="6bP5UxfNHsmQ2CxWuya5-35" vertex="1">
          <mxGeometry y="98" width="140" height="8" as="geometry" />
        </mxCell>
        <mxCell id="6bP5UxfNHsmQ2CxWuya5-42" value="Linked List" style="text;strokeColor=none;fillColor=none;align=left;verticalAlign=middle;spacingLeft=4;spacingRight=4;overflow=hidden;points=[[0,0.5],[1,0.5]];portConstraint=eastwest;rotatable=0;whiteSpace=wrap;html=1;rounded=1;" parent="6bP5UxfNHsmQ2CxWuya5-35" vertex="1">
          <mxGeometry y="106" width="140" height="30" as="geometry" />
        </mxCell>
        <mxCell id="6bP5UxfNHsmQ2CxWuya5-108" value="" style="line;strokeWidth=1;fillColor=none;align=left;verticalAlign=middle;spacingTop=-1;spacingLeft=3;spacingRight=3;rotatable=0;labelPosition=right;points=[];portConstraint=eastwest;strokeColor=inherit;rounded=1;" parent="6bP5UxfNHsmQ2CxWuya5-35" vertex="1">
          <mxGeometry y="136" width="140" height="8" as="geometry" />
        </mxCell>
        <mxCell id="6bP5UxfNHsmQ2CxWuya5-43" value="Hash Map" style="text;strokeColor=none;fillColor=none;align=left;verticalAlign=middle;spacingLeft=4;spacingRight=4;overflow=hidden;points=[[0,0.5],[1,0.5]];portConstraint=eastwest;rotatable=0;whiteSpace=wrap;html=1;rounded=1;" parent="6bP5UxfNHsmQ2CxWuya5-35" vertex="1">
          <mxGeometry y="144" width="140" height="30" as="geometry" />
        </mxCell>
        <mxCell id="6bP5UxfNHsmQ2CxWuya5-109" value="" style="line;strokeWidth=1;fillColor=none;align=left;verticalAlign=middle;spacingTop=-1;spacingLeft=3;spacingRight=3;rotatable=0;labelPosition=right;points=[];portConstraint=eastwest;strokeColor=inherit;rounded=1;" parent="6bP5UxfNHsmQ2CxWuya5-35" vertex="1">
          <mxGeometry y="174" width="140" height="8" as="geometry" />
        </mxCell>
        <mxCell id="6bP5UxfNHsmQ2CxWuya5-44" value="Heap" style="text;strokeColor=none;fillColor=none;align=left;verticalAlign=middle;spacingLeft=4;spacingRight=4;overflow=hidden;points=[[0,0.5],[1,0.5]];portConstraint=eastwest;rotatable=0;whiteSpace=wrap;html=1;rounded=1;" parent="6bP5UxfNHsmQ2CxWuya5-35" vertex="1">
          <mxGeometry y="182" width="140" height="30" as="geometry" />
        </mxCell>
        <mxCell id="6bP5UxfNHsmQ2CxWuya5-110" value="" style="line;strokeWidth=1;fillColor=none;align=left;verticalAlign=middle;spacingTop=-1;spacingLeft=3;spacingRight=3;rotatable=0;labelPosition=right;points=[];portConstraint=eastwest;strokeColor=inherit;rounded=1;" parent="6bP5UxfNHsmQ2CxWuya5-35" vertex="1">
          <mxGeometry y="212" width="140" height="8" as="geometry" />
        </mxCell>
        <mxCell id="6bP5UxfNHsmQ2CxWuya5-46" value="Graph" style="text;strokeColor=none;fillColor=none;align=left;verticalAlign=middle;spacingLeft=4;spacingRight=4;overflow=hidden;points=[[0,0.5],[1,0.5]];portConstraint=eastwest;rotatable=0;whiteSpace=wrap;html=1;rounded=1;" parent="6bP5UxfNHsmQ2CxWuya5-35" vertex="1">
          <mxGeometry y="220" width="140" height="30" as="geometry" />
        </mxCell>
        <mxCell id="6bP5UxfNHsmQ2CxWuya5-49" value="Graphics View Widget" style="swimlane;fontStyle=1;childLayout=stackLayout;horizontal=1;startSize=30;horizontalStack=0;resizeParent=1;resizeParentMax=0;resizeLast=0;collapsible=1;marginBottom=0;whiteSpace=wrap;html=1;rounded=1;" parent="WIyWlLk6GJQsqaUBKTNV-1" vertex="1">
          <mxGeometry x="344" y="40" width="140" height="250" as="geometry">
            <mxRectangle x="344" y="50" width="160" height="30" as="alternateBounds" />
          </mxGeometry>
        </mxCell>
        <mxCell id="6bP5UxfNHsmQ2CxWuya5-51" value="Settings" style="text;strokeColor=none;fillColor=none;align=left;verticalAlign=middle;spacingLeft=4;spacingRight=4;overflow=hidden;points=[[0,0.5],[1,0.5]];portConstraint=eastwest;rotatable=0;whiteSpace=wrap;html=1;rounded=1;" parent="6bP5UxfNHsmQ2CxWuya5-49" vertex="1">
          <mxGeometry y="30" width="140" height="30" as="geometry" />
        </mxCell>
        <mxCell id="6bP5UxfNHsmQ2CxWuya5-112" value="" style="line;strokeWidth=1;fillColor=none;align=left;verticalAlign=middle;spacingTop=-1;spacingLeft=3;spacingRight=3;rotatable=0;labelPosition=right;points=[];portConstraint=eastwest;strokeColor=inherit;rounded=1;" parent="6bP5UxfNHsmQ2CxWuya5-49" vertex="1">
          <mxGeometry y="60" width="140" height="8" as="geometry" />
        </mxCell>
        <mxCell id="6bP5UxfNHsmQ2CxWuya5-52" value="Back" style="text;strokeColor=none;fillColor=none;align=left;verticalAlign=middle;spacingLeft=4;spacingRight=4;overflow=hidden;points=[[0,0.5],[1,0.5]];portConstraint=eastwest;rotatable=0;whiteSpace=wrap;html=1;rounded=1;" parent="6bP5UxfNHsmQ2CxWuya5-49" vertex="1">
          <mxGeometry y="68" width="140" height="30" as="geometry" />
        </mxCell>
        <mxCell id="6bP5UxfNHsmQ2CxWuya5-113" value="" style="line;strokeWidth=1;fillColor=none;align=left;verticalAlign=middle;spacingTop=-1;spacingLeft=3;spacingRight=3;rotatable=0;labelPosition=right;points=[];portConstraint=eastwest;strokeColor=inherit;rounded=1;" parent="6bP5UxfNHsmQ2CxWuya5-49" vertex="1">
          <mxGeometry y="98" width="140" height="8" as="geometry" />
        </mxCell>
        <mxCell id="6bP5UxfNHsmQ2CxWuya5-53" value="Close" style="text;strokeColor=none;fillColor=none;align=left;verticalAlign=middle;spacingLeft=4;spacingRight=4;overflow=hidden;points=[[0,0.5],[1,0.5]];portConstraint=eastwest;rotatable=0;whiteSpace=wrap;html=1;rounded=1;" parent="6bP5UxfNHsmQ2CxWuya5-49" vertex="1">
          <mxGeometry y="106" width="140" height="30" as="geometry" />
        </mxCell>
        <mxCell id="6bP5UxfNHsmQ2CxWuya5-114" value="" style="line;strokeWidth=1;fillColor=none;align=left;verticalAlign=middle;spacingTop=-1;spacingLeft=3;spacingRight=3;rotatable=0;labelPosition=right;points=[];portConstraint=eastwest;strokeColor=inherit;rounded=1;" parent="6bP5UxfNHsmQ2CxWuya5-49" vertex="1">
          <mxGeometry y="136" width="140" height="8" as="geometry" />
        </mxCell>
        <mxCell id="6bP5UxfNHsmQ2CxWuya5-54" value="Enlarge" style="text;strokeColor=none;fillColor=none;align=left;verticalAlign=middle;spacingLeft=4;spacingRight=4;overflow=hidden;points=[[0,0.5],[1,0.5]];portConstraint=eastwest;rotatable=0;whiteSpace=wrap;html=1;rounded=1;" parent="6bP5UxfNHsmQ2CxWuya5-49" vertex="1">
          <mxGeometry y="144" width="140" height="30" as="geometry" />
        </mxCell>
        <mxCell id="6bP5UxfNHsmQ2CxWuya5-115" value="" style="line;strokeWidth=1;fillColor=none;align=left;verticalAlign=middle;spacingTop=-1;spacingLeft=3;spacingRight=3;rotatable=0;labelPosition=right;points=[];portConstraint=eastwest;strokeColor=inherit;rounded=1;" parent="6bP5UxfNHsmQ2CxWuya5-49" vertex="1">
          <mxGeometry y="174" width="140" height="8" as="geometry" />
        </mxCell>
        <mxCell id="6bP5UxfNHsmQ2CxWuya5-55" value="Feature" style="text;strokeColor=none;fillColor=none;align=left;verticalAlign=middle;spacingLeft=4;spacingRight=4;overflow=hidden;points=[[0,0.5],[1,0.5]];portConstraint=eastwest;rotatable=0;whiteSpace=wrap;html=1;rounded=1;" parent="6bP5UxfNHsmQ2CxWuya5-49" vertex="1">
          <mxGeometry y="182" width="140" height="30" as="geometry" />
        </mxCell>
        <mxCell id="6bP5UxfNHsmQ2CxWuya5-116" value="" style="line;strokeWidth=1;fillColor=none;align=left;verticalAlign=middle;spacingTop=-1;spacingLeft=3;spacingRight=3;rotatable=0;labelPosition=right;points=[];portConstraint=eastwest;strokeColor=inherit;rounded=1;" parent="6bP5UxfNHsmQ2CxWuya5-49" vertex="1">
          <mxGeometry y="212" width="140" height="8" as="geometry" />
        </mxCell>
        <mxCell id="6bP5UxfNHsmQ2CxWuya5-60" value="Graphics View" style="text;strokeColor=none;fillColor=none;align=left;verticalAlign=middle;spacingLeft=4;spacingRight=4;overflow=hidden;points=[[0,0.5],[1,0.5]];portConstraint=eastwest;rotatable=0;whiteSpace=wrap;html=1;rounded=1;" parent="6bP5UxfNHsmQ2CxWuya5-49" vertex="1">
          <mxGeometry y="220" width="140" height="30" as="geometry" />
        </mxCell>
        <mxCell id="6bP5UxfNHsmQ2CxWuya5-57" style="edgeStyle=orthogonalEdgeStyle;rounded=1;orthogonalLoop=1;jettySize=auto;html=1;entryX=0.5;entryY=0;entryDx=0;entryDy=0;exitX=0;exitY=0.5;exitDx=0;exitDy=0;" parent="WIyWlLk6GJQsqaUBKTNV-1" source="6bP5UxfNHsmQ2CxWuya5-52" target="6bP5UxfNHsmQ2CxWuya5-35" edge="1">
          <mxGeometry relative="1" as="geometry">
            <mxPoint x="290" y="160" as="sourcePoint" />
            <Array as="points">
              <mxPoint x="344" y="130" />
              <mxPoint x="290" y="130" />
              <mxPoint x="290" y="10" />
              <mxPoint x="150" y="10" />
            </Array>
          </mxGeometry>
        </mxCell>
        <mxCell id="6bP5UxfNHsmQ2CxWuya5-58" style="edgeStyle=orthogonalEdgeStyle;rounded=1;orthogonalLoop=1;jettySize=auto;html=1;entryX=0.5;entryY=0;entryDx=0;entryDy=0;" parent="WIyWlLk6GJQsqaUBKTNV-1" source="6bP5UxfNHsmQ2CxWuya5-45" target="6bP5UxfNHsmQ2CxWuya5-49" edge="1">
          <mxGeometry relative="1" as="geometry" />
        </mxCell>
        <mxCell id="6bP5UxfNHsmQ2CxWuya5-89" value="" style="group" parent="WIyWlLk6GJQsqaUBKTNV-1" vertex="1" connectable="0">
          <mxGeometry x="490" y="290" width="296" height="242" as="geometry" />
        </mxCell>
        <mxCell id="6bP5UxfNHsmQ2CxWuya5-61" value="View" style="swimlane;fontStyle=1;childLayout=stackLayout;horizontal=1;startSize=30;horizontalStack=0;resizeParent=1;resizeParentMax=0;resizeLast=0;collapsible=1;marginBottom=0;whiteSpace=wrap;html=1;rounded=1;flipH=1;flipV=0;" parent="6bP5UxfNHsmQ2CxWuya5-89" vertex="1">
          <mxGeometry y="30" width="140" height="174" as="geometry">
            <mxRectangle y="30" width="70" height="30" as="alternateBounds" />
          </mxGeometry>
        </mxCell>
        <mxCell id="6bP5UxfNHsmQ2CxWuya5-62" value="BinaryTreeView" style="text;strokeColor=none;fillColor=none;align=left;verticalAlign=middle;spacingLeft=4;spacingRight=4;overflow=hidden;points=[[0,0.5],[1,0.5]];portConstraint=eastwest;rotatable=0;whiteSpace=wrap;html=1;rounded=1;" parent="6bP5UxfNHsmQ2CxWuya5-61" vertex="1">
          <mxGeometry y="30" width="140" height="30" as="geometry" />
        </mxCell>
        <mxCell id="6bP5UxfNHsmQ2CxWuya5-103" value="" style="line;strokeWidth=1;fillColor=none;align=left;verticalAlign=middle;spacingTop=-1;spacingLeft=3;spacingRight=3;rotatable=0;labelPosition=right;points=[];portConstraint=eastwest;strokeColor=inherit;rounded=1;" parent="6bP5UxfNHsmQ2CxWuya5-61" vertex="1">
          <mxGeometry y="60" width="140" height="8" as="geometry" />
        </mxCell>
        <mxCell id="6bP5UxfNHsmQ2CxWuya5-63" value="GraphView" style="text;strokeColor=none;fillColor=none;align=left;verticalAlign=middle;spacingLeft=4;spacingRight=4;overflow=hidden;points=[[0,0.5],[1,0.5]];portConstraint=eastwest;rotatable=0;whiteSpace=wrap;html=1;rounded=1;container=0;" parent="6bP5UxfNHsmQ2CxWuya5-61" vertex="1">
          <mxGeometry y="68" width="140" height="30" as="geometry">
            <mxRectangle y="60" width="140" height="30" as="alternateBounds" />
          </mxGeometry>
        </mxCell>
        <mxCell id="6bP5UxfNHsmQ2CxWuya5-104" value="" style="line;strokeWidth=1;fillColor=none;align=left;verticalAlign=middle;spacingTop=-1;spacingLeft=3;spacingRight=3;rotatable=0;labelPosition=right;points=[];portConstraint=eastwest;strokeColor=inherit;rounded=1;" parent="6bP5UxfNHsmQ2CxWuya5-61" vertex="1">
          <mxGeometry y="98" width="140" height="8" as="geometry" />
        </mxCell>
        <mxCell id="6bP5UxfNHsmQ2CxWuya5-64" value="HeapView" style="text;strokeColor=none;fillColor=none;align=left;verticalAlign=middle;spacingLeft=4;spacingRight=4;overflow=hidden;points=[[0,0.5],[1,0.5]];portConstraint=eastwest;rotatable=0;whiteSpace=wrap;html=1;rounded=1;" parent="6bP5UxfNHsmQ2CxWuya5-61" vertex="1">
          <mxGeometry y="106" width="140" height="30" as="geometry" />
        </mxCell>
        <mxCell id="6bP5UxfNHsmQ2CxWuya5-105" value="" style="line;strokeWidth=1;fillColor=none;align=left;verticalAlign=middle;spacingTop=-1;spacingLeft=3;spacingRight=3;rotatable=0;labelPosition=right;points=[];portConstraint=eastwest;strokeColor=inherit;rounded=1;" parent="6bP5UxfNHsmQ2CxWuya5-61" vertex="1">
          <mxGeometry y="136" width="140" height="8" as="geometry" />
        </mxCell>
        <mxCell id="6bP5UxfNHsmQ2CxWuya5-79" value="....." style="text;strokeColor=none;fillColor=none;align=left;verticalAlign=middle;spacingLeft=4;spacingRight=4;overflow=hidden;points=[[0,0.5],[1,0.5]];portConstraint=eastwest;rotatable=0;whiteSpace=wrap;html=1;rounded=1;" parent="6bP5UxfNHsmQ2CxWuya5-61" vertex="1">
          <mxGeometry y="144" width="140" height="30" as="geometry" />
        </mxCell>
        <mxCell id="6bP5UxfNHsmQ2CxWuya5-65" value="Item" style="swimlane;fontStyle=1;childLayout=stackLayout;horizontal=1;startSize=30;horizontalStack=0;resizeParent=1;resizeParentMax=0;resizeLast=0;collapsible=1;marginBottom=0;whiteSpace=wrap;html=1;rounded=1;" parent="6bP5UxfNHsmQ2CxWuya5-89" vertex="1">
          <mxGeometry x="156" y="30" width="140" height="212" as="geometry">
            <mxRectangle x="156" y="30" width="60" height="30" as="alternateBounds" />
          </mxGeometry>
        </mxCell>
        <mxCell id="6bP5UxfNHsmQ2CxWuya5-66" value="Node" style="text;strokeColor=none;fillColor=none;align=left;verticalAlign=middle;spacingLeft=4;spacingRight=4;overflow=hidden;points=[[0,0.5],[1,0.5]];portConstraint=eastwest;rotatable=0;whiteSpace=wrap;html=1;" parent="6bP5UxfNHsmQ2CxWuya5-65" vertex="1">
          <mxGeometry y="30" width="140" height="30" as="geometry" />
        </mxCell>
        <mxCell id="6bP5UxfNHsmQ2CxWuya5-121" value="" style="line;strokeWidth=1;fillColor=none;align=left;verticalAlign=middle;spacingTop=-1;spacingLeft=3;spacingRight=3;rotatable=0;labelPosition=right;points=[];portConstraint=eastwest;strokeColor=inherit;rounded=1;" parent="6bP5UxfNHsmQ2CxWuya5-65" vertex="1">
          <mxGeometry y="60" width="140" height="8" as="geometry" />
        </mxCell>
        <mxCell id="6bP5UxfNHsmQ2CxWuya5-67" value="Line" style="text;strokeColor=none;fillColor=none;align=left;verticalAlign=middle;spacingLeft=4;spacingRight=4;overflow=hidden;points=[[0,0.5],[1,0.5]];portConstraint=eastwest;rotatable=0;whiteSpace=wrap;html=1;" parent="6bP5UxfNHsmQ2CxWuya5-65" vertex="1">
          <mxGeometry y="68" width="140" height="30" as="geometry" />
        </mxCell>
        <mxCell id="6bP5UxfNHsmQ2CxWuya5-122" value="" style="line;strokeWidth=1;fillColor=none;align=left;verticalAlign=middle;spacingTop=-1;spacingLeft=3;spacingRight=3;rotatable=0;labelPosition=right;points=[];portConstraint=eastwest;strokeColor=inherit;rounded=1;" parent="6bP5UxfNHsmQ2CxWuya5-65" vertex="1">
          <mxGeometry y="98" width="140" height="8" as="geometry" />
        </mxCell>
        <mxCell id="6bP5UxfNHsmQ2CxWuya5-68" value="Arrow Line" style="text;strokeColor=none;fillColor=none;align=left;verticalAlign=middle;spacingLeft=4;spacingRight=4;overflow=hidden;points=[[0,0.5],[1,0.5]];portConstraint=eastwest;rotatable=0;whiteSpace=wrap;html=1;" parent="6bP5UxfNHsmQ2CxWuya5-65" vertex="1">
          <mxGeometry y="106" width="140" height="30" as="geometry" />
        </mxCell>
        <mxCell id="6bP5UxfNHsmQ2CxWuya5-123" value="" style="line;strokeWidth=1;fillColor=none;align=left;verticalAlign=middle;spacingTop=-1;spacingLeft=3;spacingRight=3;rotatable=0;labelPosition=right;points=[];portConstraint=eastwest;strokeColor=inherit;rounded=1;" parent="6bP5UxfNHsmQ2CxWuya5-65" vertex="1">
          <mxGeometry y="136" width="140" height="8" as="geometry" />
        </mxCell>
        <mxCell id="6bP5UxfNHsmQ2CxWuya5-69" value="Rectangle" style="text;strokeColor=none;fillColor=none;align=left;verticalAlign=middle;spacingLeft=4;spacingRight=4;overflow=hidden;points=[[0,0.5],[1,0.5]];portConstraint=eastwest;rotatable=0;whiteSpace=wrap;html=1;" parent="6bP5UxfNHsmQ2CxWuya5-65" vertex="1">
          <mxGeometry y="144" width="140" height="30" as="geometry" />
        </mxCell>
        <mxCell id="6bP5UxfNHsmQ2CxWuya5-124" value="" style="line;strokeWidth=1;fillColor=none;align=left;verticalAlign=middle;spacingTop=-1;spacingLeft=3;spacingRight=3;rotatable=0;labelPosition=right;points=[];portConstraint=eastwest;strokeColor=inherit;rounded=1;" parent="6bP5UxfNHsmQ2CxWuya5-65" vertex="1">
          <mxGeometry y="174" width="140" height="8" as="geometry" />
        </mxCell>
        <mxCell id="6bP5UxfNHsmQ2CxWuya5-70" value="....." style="text;strokeColor=none;fillColor=none;align=left;verticalAlign=middle;spacingLeft=4;spacingRight=4;overflow=hidden;points=[[0,0.5],[1,0.5]];portConstraint=eastwest;rotatable=0;whiteSpace=wrap;html=1;" parent="6bP5UxfNHsmQ2CxWuya5-65" vertex="1">
          <mxGeometry y="182" width="140" height="30" as="geometry" />
        </mxCell>
        <mxCell id="6bP5UxfNHsmQ2CxWuya5-78" style="edgeStyle=orthogonalEdgeStyle;rounded=1;orthogonalLoop=1;jettySize=auto;html=1;entryX=0.5;entryY=0;entryDx=0;entryDy=0;exitX=0.5;exitY=0;exitDx=0;exitDy=0;" parent="6bP5UxfNHsmQ2CxWuya5-89" source="6bP5UxfNHsmQ2CxWuya5-61" target="6bP5UxfNHsmQ2CxWuya5-65" edge="1">
          <mxGeometry relative="1" as="geometry">
            <mxPoint x="110" y="-80" as="targetPoint" />
            <Array as="points">
              <mxPoint x="70" />
              <mxPoint x="226" />
            </Array>
          </mxGeometry>
        </mxCell>
        <mxCell id="6bP5UxfNHsmQ2CxWuya5-90" style="edgeStyle=orthogonalEdgeStyle;rounded=1;orthogonalLoop=1;jettySize=auto;html=1;entryX=0.25;entryY=0;entryDx=0;entryDy=0;" parent="WIyWlLk6GJQsqaUBKTNV-1" source="6bP5UxfNHsmQ2CxWuya5-60" target="6bP5UxfNHsmQ2CxWuya5-61" edge="1">
          <mxGeometry relative="1" as="geometry" />
        </mxCell>
        <mxCell id="6bP5UxfNHsmQ2CxWuya5-91" value="Binary Tree View" style="swimlane;fontStyle=1;align=center;verticalAlign=top;childLayout=stackLayout;horizontal=1;startSize=26;horizontalStack=0;resizeParent=1;resizeParentMax=0;resizeLast=0;collapsible=1;marginBottom=0;whiteSpace=wrap;html=1;rounded=1;" parent="WIyWlLk6GJQsqaUBKTNV-1" vertex="1">
          <mxGeometry x="240" y="330" width="140" height="154" as="geometry">
            <mxRectangle x="270" y="360" width="140" height="30" as="alternateBounds" />
          </mxGeometry>
        </mxCell>
        <mxCell id="6bP5UxfNHsmQ2CxWuya5-92" value="+ Func: Add" style="text;strokeColor=none;fillColor=none;align=left;verticalAlign=top;spacingLeft=4;spacingRight=4;overflow=hidden;rotatable=0;points=[[0,0.5],[1,0.5]];portConstraint=eastwest;whiteSpace=wrap;html=1;" parent="6bP5UxfNHsmQ2CxWuya5-91" vertex="1">
          <mxGeometry y="26" width="140" height="26" as="geometry" />
        </mxCell>
        <mxCell id="6bP5UxfNHsmQ2CxWuya5-118" value="" style="line;strokeWidth=1;fillColor=none;align=left;verticalAlign=middle;spacingTop=-1;spacingLeft=3;spacingRight=3;rotatable=0;labelPosition=right;points=[];portConstraint=eastwest;strokeColor=inherit;rounded=1;" parent="6bP5UxfNHsmQ2CxWuya5-91" vertex="1">
          <mxGeometry y="52" width="140" height="8" as="geometry" />
        </mxCell>
        <mxCell id="6bP5UxfNHsmQ2CxWuya5-94" value="+ Func: Delete" style="text;strokeColor=none;fillColor=none;align=left;verticalAlign=top;spacingLeft=4;spacingRight=4;overflow=hidden;rotatable=0;points=[[0,0.5],[1,0.5]];portConstraint=eastwest;whiteSpace=wrap;html=1;" parent="6bP5UxfNHsmQ2CxWuya5-91" vertex="1">
          <mxGeometry y="60" width="140" height="26" as="geometry" />
        </mxCell>
        <mxCell id="6bP5UxfNHsmQ2CxWuya5-119" value="" style="line;strokeWidth=1;fillColor=none;align=left;verticalAlign=middle;spacingTop=-1;spacingLeft=3;spacingRight=3;rotatable=0;labelPosition=right;points=[];portConstraint=eastwest;strokeColor=inherit;rounded=1;" parent="6bP5UxfNHsmQ2CxWuya5-91" vertex="1">
          <mxGeometry y="86" width="140" height="8" as="geometry" />
        </mxCell>
        <mxCell id="6bP5UxfNHsmQ2CxWuya5-95" value="+ Func: Search" style="text;strokeColor=none;fillColor=none;align=left;verticalAlign=top;spacingLeft=4;spacingRight=4;overflow=hidden;rotatable=0;points=[[0,0.5],[1,0.5]];portConstraint=eastwest;whiteSpace=wrap;html=1;" parent="6bP5UxfNHsmQ2CxWuya5-91" vertex="1">
          <mxGeometry y="94" width="140" height="26" as="geometry" />
        </mxCell>
        <mxCell id="6bP5UxfNHsmQ2CxWuya5-120" value="" style="line;strokeWidth=1;fillColor=none;align=left;verticalAlign=middle;spacingTop=-1;spacingLeft=3;spacingRight=3;rotatable=0;labelPosition=right;points=[];portConstraint=eastwest;strokeColor=inherit;rounded=1;" parent="6bP5UxfNHsmQ2CxWuya5-91" vertex="1">
          <mxGeometry y="120" width="140" height="8" as="geometry" />
        </mxCell>
        <mxCell id="6bP5UxfNHsmQ2CxWuya5-96" value="....." style="text;strokeColor=none;fillColor=none;align=left;verticalAlign=top;spacingLeft=4;spacingRight=4;overflow=hidden;rotatable=0;points=[[0,0.5],[1,0.5]];portConstraint=eastwest;whiteSpace=wrap;html=1;" parent="6bP5UxfNHsmQ2CxWuya5-91" vertex="1">
          <mxGeometry y="128" width="140" height="26" as="geometry" />
        </mxCell>
        <mxCell id="6bP5UxfNHsmQ2CxWuya5-117" style="edgeStyle=orthogonalEdgeStyle;rounded=1;orthogonalLoop=1;jettySize=auto;html=1;entryX=0.5;entryY=0;entryDx=0;entryDy=0;" parent="WIyWlLk6GJQsqaUBKTNV-1" source="6bP5UxfNHsmQ2CxWuya5-55" target="6bP5UxfNHsmQ2CxWuya5-91" edge="1">
          <mxGeometry relative="1" as="geometry" />
        </mxCell>
        <mxCell id="6bP5UxfNHsmQ2CxWuya5-125" style="edgeStyle=orthogonalEdgeStyle;rounded=1;orthogonalLoop=1;jettySize=auto;html=1;entryX=0.5;entryY=0;entryDx=0;entryDy=0;" parent="WIyWlLk6GJQsqaUBKTNV-1" source="6bP5UxfNHsmQ2CxWuya5-62" target="6bP5UxfNHsmQ2CxWuya5-91" edge="1">
          <mxGeometry relative="1" as="geometry" />
        </mxCell>
        <mxCell id="6bP5UxfNHsmQ2CxWuya5-131" style="edgeStyle=orthogonalEdgeStyle;rounded=1;orthogonalLoop=1;jettySize=auto;html=1;entryX=0.25;entryY=0;entryDx=0;entryDy=0;" parent="WIyWlLk6GJQsqaUBKTNV-1" source="6bP5UxfNHsmQ2CxWuya5-51" target="6bP5UxfNHsmQ2CxWuya5-127" edge="1">
          <mxGeometry relative="1" as="geometry" />
        </mxCell>
        <mxCell id="zqdqEq2gwJuUYBrcfp8C-3" value="" style="group" vertex="1" connectable="0" parent="WIyWlLk6GJQsqaUBKTNV-1">
          <mxGeometry x="640" y="40" width="340" height="270" as="geometry" />
        </mxCell>
        <mxCell id="6bP5UxfNHsmQ2CxWuya5-127" value="Settings Widget" style="swimlane;fontStyle=1;childLayout=stackLayout;horizontal=1;startSize=30;horizontalStack=0;resizeParent=1;resizeParentMax=0;resizeLast=0;collapsible=1;marginBottom=0;whiteSpace=wrap;html=1;rounded=1;" parent="zqdqEq2gwJuUYBrcfp8C-3" vertex="1">
          <mxGeometry y="70" width="140" height="90" as="geometry" />
        </mxCell>
        <mxCell id="6bP5UxfNHsmQ2CxWuya5-128" value="Global Option" style="text;strokeColor=none;fillColor=none;align=left;verticalAlign=middle;spacingLeft=4;spacingRight=4;overflow=hidden;points=[[0,0.5],[1,0.5]];portConstraint=eastwest;rotatable=0;whiteSpace=wrap;html=1;" parent="6bP5UxfNHsmQ2CxWuya5-127" vertex="1">
          <mxGeometry y="30" width="140" height="30" as="geometry" />
        </mxCell>
        <mxCell id="6bP5UxfNHsmQ2CxWuya5-129" value="Data Structure" style="text;strokeColor=none;fillColor=none;align=left;verticalAlign=middle;spacingLeft=4;spacingRight=4;overflow=hidden;points=[[0,0.5],[1,0.5]];portConstraint=eastwest;rotatable=0;whiteSpace=wrap;html=1;" parent="6bP5UxfNHsmQ2CxWuya5-127" vertex="1">
          <mxGeometry y="60" width="140" height="30" as="geometry" />
        </mxCell>
        <mxCell id="6bP5UxfNHsmQ2CxWuya5-132" value="Global Option" style="swimlane;fontStyle=1;childLayout=stackLayout;horizontal=1;startSize=30;horizontalStack=0;resizeParent=1;resizeParentMax=0;resizeLast=0;collapsible=1;marginBottom=0;whiteSpace=wrap;html=1;rounded=1;" parent="zqdqEq2gwJuUYBrcfp8C-3" vertex="1">
          <mxGeometry x="200" width="140" height="120" as="geometry" />
        </mxCell>
        <mxCell id="6bP5UxfNHsmQ2CxWuya5-133" value="Animation Speed" style="text;strokeColor=none;fillColor=none;align=left;verticalAlign=middle;spacingLeft=4;spacingRight=4;overflow=hidden;points=[[0,0.5],[1,0.5]];portConstraint=eastwest;rotatable=0;whiteSpace=wrap;html=1;" parent="6bP5UxfNHsmQ2CxWuya5-132" vertex="1">
          <mxGeometry y="30" width="140" height="30" as="geometry" />
        </mxCell>
        <mxCell id="6bP5UxfNHsmQ2CxWuya5-134" value="Item 2" style="text;strokeColor=none;fillColor=none;align=left;verticalAlign=middle;spacingLeft=4;spacingRight=4;overflow=hidden;points=[[0,0.5],[1,0.5]];portConstraint=eastwest;rotatable=0;whiteSpace=wrap;html=1;" parent="6bP5UxfNHsmQ2CxWuya5-132" vertex="1">
          <mxGeometry y="60" width="140" height="30" as="geometry" />
        </mxCell>
        <mxCell id="6bP5UxfNHsmQ2CxWuya5-135" value="....." style="text;strokeColor=none;fillColor=none;align=left;verticalAlign=middle;spacingLeft=4;spacingRight=4;overflow=hidden;points=[[0,0.5],[1,0.5]];portConstraint=eastwest;rotatable=0;whiteSpace=wrap;html=1;" parent="6bP5UxfNHsmQ2CxWuya5-132" vertex="1">
          <mxGeometry y="90" width="140" height="30" as="geometry" />
        </mxCell>
        <mxCell id="6bP5UxfNHsmQ2CxWuya5-136" style="edgeStyle=orthogonalEdgeStyle;rounded=1;orthogonalLoop=1;jettySize=auto;html=1;entryX=0.25;entryY=0;entryDx=0;entryDy=0;" parent="zqdqEq2gwJuUYBrcfp8C-3" source="6bP5UxfNHsmQ2CxWuya5-128" target="6bP5UxfNHsmQ2CxWuya5-132" edge="1">
          <mxGeometry relative="1" as="geometry" />
        </mxCell>
        <mxCell id="6bP5UxfNHsmQ2CxWuya5-137" value="Data Structure (Tree)" style="swimlane;fontStyle=1;childLayout=stackLayout;horizontal=1;startSize=30;horizontalStack=0;resizeParent=1;resizeParentMax=0;resizeLast=0;collapsible=1;marginBottom=0;whiteSpace=wrap;html=1;rounded=1;" parent="zqdqEq2gwJuUYBrcfp8C-3" vertex="1">
          <mxGeometry x="200" y="150" width="140" height="120" as="geometry" />
        </mxCell>
        <mxCell id="6bP5UxfNHsmQ2CxWuya5-138" value="Node Color" style="text;strokeColor=none;fillColor=none;align=left;verticalAlign=middle;spacingLeft=4;spacingRight=4;overflow=hidden;points=[[0,0.5],[1,0.5]];portConstraint=eastwest;rotatable=0;whiteSpace=wrap;html=1;" parent="6bP5UxfNHsmQ2CxWuya5-137" vertex="1">
          <mxGeometry y="30" width="140" height="30" as="geometry" />
        </mxCell>
        <mxCell id="6bP5UxfNHsmQ2CxWuya5-139" value="Switch the Tree" style="text;strokeColor=none;fillColor=none;align=left;verticalAlign=middle;spacingLeft=4;spacingRight=4;overflow=hidden;points=[[0,0.5],[1,0.5]];portConstraint=eastwest;rotatable=0;whiteSpace=wrap;html=1;" parent="6bP5UxfNHsmQ2CxWuya5-137" vertex="1">
          <mxGeometry y="60" width="140" height="30" as="geometry" />
        </mxCell>
        <mxCell id="6bP5UxfNHsmQ2CxWuya5-140" value="....." style="text;strokeColor=none;fillColor=none;align=left;verticalAlign=middle;spacingLeft=4;spacingRight=4;overflow=hidden;points=[[0,0.5],[1,0.5]];portConstraint=eastwest;rotatable=0;whiteSpace=wrap;html=1;" parent="6bP5UxfNHsmQ2CxWuya5-137" vertex="1">
          <mxGeometry y="90" width="140" height="30" as="geometry" />
        </mxCell>
        <mxCell id="zqdqEq2gwJuUYBrcfp8C-0" style="edgeStyle=orthogonalEdgeStyle;rounded=0;orthogonalLoop=1;jettySize=auto;html=1;entryX=0.216;entryY=0.997;entryDx=0;entryDy=0;entryPerimeter=0;" edge="1" parent="zqdqEq2gwJuUYBrcfp8C-3" source="6bP5UxfNHsmQ2CxWuya5-129" target="6bP5UxfNHsmQ2CxWuya5-140">
          <mxGeometry relative="1" as="geometry" />
        </mxCell>
      </root>
    </mxGraphModel>
  </diagram>
</mxfile>
